<svg xmlns="http://www.w3.org/2000/svg" viewBox="0 0 512 512" role="img" aria-label="Accordion">
  <defs>
    <linearGradient id="bg" x1="80" x2="432" y1="48" y2="464" gradientUnits="userSpaceOnUse">
      <stop stop-color="#7c3aed" />
      <stop offset="0.52" stop-color="#5865f2" />
      <stop offset="1" stop-color="#06b6d4" />
    </linearGradient>
    <linearGradient id="fold" x1="154" x2="358" y1="136" y2="376" gradientUnits="userSpaceOnUse">
      <stop stop-color="#ffffff" />
      <stop offset="1" stop-color="#dbeafe" />
    </linearGradient>
  </defs>
  <rect width="512" height="512" rx="116" fill="#111827" />
  <rect x="32" y="32" width="448" height="448" rx="96" fill="url(#bg)" />
  <path fill="#0f172a" fill-opacity="0.2" d="M132 388c44 34 104 52 180 52 58 0 106-12 144-36a96 96 0 0 1-88 76H128a96 96 0 0 1-96-96V276c20 44 54 82 100 112Z" />
  <rect x="96" y="144" width="90" height="224" rx="28" fill="#f8fafc" />
  <rect x="326" y="144" width="90" height="224" rx="28" fill="#f8fafc" />
  <path fill="url(#fold)" d="M186 164c22 18 40 18 62 0 22-19 42-19 64 0l14 12v160l-14 12c-22 19-42 19-64 0-22-18-40-18-62 0V164Z" />
  <path fill="none" stroke="#4f46e5" stroke-linecap="round" stroke-width="16" d="M224 192v128m64-128v128" opacity="0.55" />
  <circle cx="141" cy="194" r="12" fill="#1e293b" />
  <circle cx="141" cy="256" r="12" fill="#1e293b" />
  <circle cx="141" cy="318" r="12" fill="#1e293b" />
  <circle cx="371" cy="194" r="12" fill="#1e293b" />
  <circle cx="371" cy="256" r="12" fill="#1e293b" />
  <circle cx="371" cy="318" r="12" fill="#1e293b" />
</svg>
